<?xml version="1.0" encoding="UTF-8"?>
<svg width="535.6pt" height="169.5pt" version="1.2" viewBox="0 0 535.6 169.5" xmlns="http://www.w3.org/2000/svg"><defs><clipPath><path d="m0 0h600v254.1h-600z"/></clipPath></defs><g transform="translate(-32.18 -42.29)" fill="#fff"><path d="m44.18 156.9h51.4l22.81-51.3-22.81-51.29h-51.4zm55.3 12h-61.3c-3.316 0-6.004-2.684-6.004-6v-114.6c0-3.309 2.688-6 6.004-6h61.3c2.367 0 4.52 1.402 5.484 3.562l25.48 57.3c0.6875 1.555 0.6875 3.324 0 4.879l-25.48 57.29c-0.9648 2.172-3.117 3.566-5.484 3.566"/><path d="m110.2 72.98h68.59l-30.78 65.4 30.78 65.41h-68.59l-28.51-65.41z"/><path d="m111.2 202.3h65.25l-29.78-63.26c-0.1953-0.4023-0.1953-0.8672 0-1.277l29.78-63.26h-65.25l-27.85 63.9zm67.68 3.008c-0.0195-4e-3 -0.043 0-0.0625 0h-68.59c-0.5976 0-1.141-0.3516-1.379-0.9023l-28.5-65.41c-0.1641-0.3789-0.1641-0.8125 0-1.199l28.5-65.4c0.2383-0.5469 0.7812-0.9062 1.379-0.9062h68.59c0.5195 0 0.9922 0.2656 1.266 0.6992 0.2852 0.4336 0.3125 0.9766 0.0937 1.445l-30.48 64.76 30.32 64.43c0.2305 0.2578 0.3672 0.6055 0.3672 0.9727 0 0.832-0.6719 1.504-1.504 1.504"/><path d="m214.4 85.55c0-3.246-2.578-5.82-5.711-5.82h-5.82v40.98h5.82c3.133 0 5.711-2.57 5.711-5.711zm7.164 0v29.45c0 7.168-5.707 12.99-12.88 12.99h-9.406c-1.902 0-3.582-1.68-3.582-3.582v-48.25c0-2.016 1.68-3.582 3.582-3.582h9.406c7.168 0 12.88 5.82 12.88 12.98"/><path d="m233.5 79.73v16.91h9.742c1.008 0 1.793 0.7812 1.793 1.793v3.582c0 1.004-0.7852 1.793-1.793 1.793h-9.742v17.02h9.742c1.008 0 1.793 0.7852 1.793 1.793v3.582c0 1.008-0.7852 1.789-1.793 1.789h-13.32c-2.016 0-3.582-1.68-3.582-3.582v-48.25c0-2.016 1.566-3.582 3.582-3.582h13.32c1.008 0 1.793 0.7812 1.793 1.789v3.582c0 1.012-0.7852 1.793-1.793 1.793z"/><path d="m268.6 85.44c0-3.133-2.578-5.707-5.711-5.707h-5.82v16.91h5.82c3.133 0 5.711-2.574 5.711-5.824zm7.164 0v5.375c0 7.168-5.82 12.99-12.88 12.99h-5.82v22.39c0 0.8945-0.7852 1.789-1.793 1.789h-3.582c-0.8945 0-1.793-0.8945-1.793-1.789v-51.84c0-1.008 0.8984-1.789 1.793-1.789h11.2c7.055 0 12.88 5.82 12.88 12.87"/><path d="m296.9 85.55c0-3.137-2.578-5.711-5.711-5.711-3.246 0-5.824 2.574-5.824 5.711v11.2h11.54zm7.164 0v40.64c0 1.004-0.7812 1.789-1.793 1.789h-3.582c-1.008 0-1.789-0.7852-1.789-1.789v-22.28h-11.54v22.28c0 1.004-0.7812 1.789-1.789 1.789h-3.582c-1.012 0-1.793-0.7852-1.793-1.789v-40.64c0-7.055 5.82-12.88 12.99-12.88 7.051 0 12.88 5.82 12.88 12.88"/><path d="m325.2 85.44c0-3.133-2.574-5.707-5.711-5.707h-5.711v16.91h5.711c3.137 0 5.711-2.574 5.711-5.824zm7.168 5.375c0 3.695-1.457 7.059-3.922 9.406 2.465 2.352 3.922 5.598 3.922 9.293v16.68c0 0.8945-0.7852 1.789-1.793 1.789h-3.582c-1.008 0-1.793-0.8945-1.793-1.789v-16.68c0-3.133-2.574-5.707-5.711-5.707h-5.711v22.39c0 0.8945-0.8906 1.789-1.789 1.789h-3.578c-1.012 0-1.797-0.8945-1.797-1.789v-50.05c0-2.016 1.57-3.582 3.582-3.582h9.293c7.168 0 12.88 5.82 12.88 12.87z"/><path d="m353.6 74.36v3.582c0 1.012-0.7812 1.793-1.789 1.793h-5.039v46.46c0 0.8945-0.7852 1.789-1.793 1.789h-3.582c-1.008 0-1.793-0.8945-1.793-1.789v-46.46h-5.035c-1.008 0-1.793-0.7812-1.793-1.793v-3.582c0-1.008 0.7852-1.789 1.793-1.789h17.24c1.008 0 1.789 0.7812 1.789 1.789"/><path d="m372.6 85.55c0-3.137-2.574-5.711-5.707-5.711-3.25 0-5.828 2.574-5.828 5.711v11.2h11.54zm7.168 0v40.64c0 1.004-0.7852 1.789-1.793 1.789h-3.586c-1.004 0-1.789-0.7852-1.789-1.789v-22.28h-11.54v22.28c0 1.004-0.7812 1.789-1.789 1.789h-3.582c-1.008 0-1.793-0.7852-1.793-1.789v-40.64c0-7.055 5.824-12.88 12.99-12.88 7.047 0 12.88 5.82 12.88 12.88"/><path d="m429.1 85.44v40.76c0 0.8945-0.7852 1.789-1.789 1.789h-3.586c-1.008 0-1.793-0.8945-1.793-1.789v-40.76c0-3.133-2.574-5.707-5.824-5.707-3.129 0-5.703 2.574-5.703 5.707v40.76c0 0.8945-0.7852 1.789-1.793 1.789h-3.582c-1.008 0-1.793-0.8945-1.793-1.789v-40.76c0-3.133-2.574-5.707-5.711-5.707-3.246 0-5.824 2.574-5.824 5.707v40.76c0 0.8945-0.7812 1.789-1.793 1.789h-3.582c-0.8906 0-1.789-0.8945-1.789-1.789v-40.76c0-7.051 5.82-12.87 12.99-12.87 3.586 0 6.941 1.566 9.293 4.031 2.352-2.465 5.711-4.031 9.289-4.031 7.172 0 12.99 5.82 12.99 12.87"/><path d="m441.1 79.73v16.91h9.742c1.008 0 1.789 0.7812 1.789 1.793v3.582c0 1.004-0.7812 1.793-1.789 1.793h-9.742v17.02h9.742c1.008 0 1.789 0.7852 1.789 1.793v3.582c0 1.008-0.7812 1.789-1.789 1.789h-13.32c-2.016 0-3.582-1.68-3.582-3.582v-48.25c0-2.016 1.566-3.582 3.582-3.582h13.32c1.008 0 1.789 0.7812 1.789 1.789v3.582c0 1.012-0.7812 1.793-1.789 1.793z"/><path d="m483.3 85.44v40.76c0 0.8945-0.7812 1.789-1.793 1.789h-3.578c-1.012 0-1.793-0.8945-1.793-1.789v-40.76c0-3.133-2.578-5.707-5.711-5.707-3.246 0-5.82 2.574-5.82 5.707v40.76c0 0.8945-0.7812 1.789-1.793 1.789h-3.582c-1.008 0-1.793-0.8945-1.793-1.789v-40.76c0-7.051 5.82-12.87 12.99-12.87 7.055 0 12.88 5.82 12.88 12.87"/><path d="m504.5 74.36v3.582c0 1.012-0.7852 1.793-1.793 1.793h-5.039v46.46c0 0.8945-0.7812 1.789-1.789 1.789h-3.582c-1.004 0-1.793-0.8945-1.793-1.789v-46.46h-5.039c-1.004 0-1.789-0.7812-1.789-1.793v-3.582c0-1.008 0.7852-1.789 1.789-1.789h17.24c1.008 0 1.793 0.7812 1.793 1.789"/><path d="m523.5 85.44c0-3.133-2.578-5.707-5.711-5.707-3.25 0-5.824 2.574-5.824 5.707v29.56c0 3.246 2.574 5.824 5.824 5.824 3.133 0 5.711-2.578 5.711-5.824zm7.164 0v29.56c0 7.168-5.82 12.99-12.88 12.99-7.168 0-12.99-5.82-12.99-12.99v-29.56c0-7.051 5.824-12.87 12.99-12.87 7.055 0 12.88 5.82 12.88 12.87"/><path d="m214.4 162.5c0-3.25-2.578-5.824-5.711-5.824h-5.82v40.98h5.82c3.133 0 5.711-2.578 5.711-5.711zm7.164 0v29.45c0 7.168-5.707 12.98-12.88 12.98h-9.406c-1.902 0-3.582-1.676-3.582-3.582v-48.25c0-2.016 1.68-3.586 3.582-3.586h9.406c7.168 0 12.88 5.824 12.88 12.99"/><path d="m233.5 156.6v16.91h9.742c1.008 0 1.793 0.7852 1.793 1.793v3.578c0 1.008-0.7852 1.793-1.793 1.793h-9.742v17.02h9.742c1.008 0 1.793 0.7852 1.793 1.793v3.582c0 1.008-0.7852 1.789-1.793 1.789h-13.32c-2.016 0-3.582-1.676-3.582-3.582v-48.25c0-2.016 1.566-3.586 3.582-3.586h13.32c1.008 0 1.793 0.7891 1.793 1.793v3.582c0 1.008-0.7852 1.793-1.793 1.793z"/><path d="m280.1 166.1v-3.805c0-3.137-2.574-5.711-5.707-5.711-3.137 0-5.715 2.574-5.715 5.711v29.67c0 3.137 2.578 5.711 5.715 5.711 3.133 0 5.707-2.574 5.707-5.711v-4.141c0-1.008 0.7852-1.793 1.793-1.793h3.582c1.004 0 1.793 0.7852 1.793 1.793v4.141c0 7.059-5.824 12.88-12.88 12.88-7.168 0-12.88-5.816-12.88-12.88v-29.67c0-7.055 5.707-12.88 12.88-12.88 7.051 0 12.88 5.824 12.88 12.88v3.805c0 1.012-0.7891 1.789-1.793 1.789h-3.582c-1.008 0-1.793-0.7773-1.793-1.789"/><path d="m309.7 162.3c0-3.137-2.578-5.711-5.711-5.711-3.246 0-5.82 2.574-5.82 5.711v29.56c0 3.246 2.574 5.82 5.82 5.82 3.133 0 5.711-2.574 5.711-5.82zm7.164 0v29.56c0 7.168-5.82 12.98-12.88 12.98-7.164 0-12.99-5.816-12.99-12.98v-29.56c0-7.055 5.824-12.88 12.99-12.88 7.055 0 12.88 5.824 12.88 12.88"/><path d="m366.2 162.3v40.75c0 0.8945-0.7852 1.789-1.793 1.789h-3.582c-1.012 0-1.793-0.8945-1.793-1.789v-40.75c0-3.137-2.578-5.711-5.82-5.711-3.137 0-5.711 2.574-5.711 5.711v40.75c0 0.8945-0.7812 1.789-1.793 1.789h-3.582c-1.008 0-1.793-0.8945-1.793-1.789v-40.75c0-3.137-2.574-5.711-5.707-5.711-3.246 0-5.824 2.574-5.824 5.711v40.75c0 0.8945-0.7812 1.789-1.789 1.789h-3.586c-0.8945 0-1.789-0.8945-1.789-1.789v-40.75c0-7.055 5.82-12.88 12.99-12.88 3.582 0 6.941 1.57 9.293 4.031 2.352-2.461 5.707-4.031 9.293-4.031 7.164 0 12.99 5.824 12.99 12.88"/><path d="m389.7 162.3c0-3.137-2.57-5.711-5.707-5.711h-5.824v16.91h5.824c3.137 0 5.707-2.574 5.707-5.824zm7.168 0v5.371c0 7.168-5.824 12.99-12.88 12.99h-5.824v22.39c0 0.8945-0.7812 1.789-1.789 1.789h-3.582c-0.8945 0-1.793-0.8945-1.793-1.789v-51.84c0-1.004 0.8984-1.793 1.793-1.793h11.2c7.051 0 12.88 5.824 12.88 12.88"/><path d="m425.2 151.3v40.64c0 7.168-5.82 12.98-12.87 12.98-7.168 0-12.99-5.816-12.99-12.98v-40.64c0-1.004 0.8945-1.793 1.789-1.793h3.586c1.008 0 1.789 0.7891 1.789 1.793v40.64c0 3.246 2.578 5.82 5.828 5.82 3.133 0 5.707-2.574 5.707-5.82v-40.64c0-1.004 0.7852-1.793 1.789-1.793h3.582c1.008 0 1.793 0.7891 1.793 1.793"/><path d="m449.7 151.3v3.582c0 1.008-0.7812 1.793-1.789 1.793h-5.039v46.46c0 0.8945-0.7812 1.789-1.793 1.789h-3.582c-1.004 0-1.793-0.8945-1.793-1.789v-46.46h-5.039c-1.008 0-1.789-0.7852-1.789-1.793v-3.582c0-1.004 0.7812-1.793 1.789-1.793h17.25c1.008 0 1.789 0.7891 1.789 1.793"/><path d="m468.8 162.5c0-3.137-2.578-5.711-5.715-5.711-3.242 0-5.82 2.574-5.82 5.711v11.19h11.54zm7.164 0v40.64c0 1.008-0.7852 1.789-1.793 1.789h-3.582c-1.008 0-1.789-0.7812-1.789-1.789v-22.28h-11.54v22.28c0 1.008-0.7812 1.789-1.793 1.789h-3.578c-1.012 0-1.797-0.7812-1.797-1.789v-40.64c0-7.055 5.824-12.88 12.99-12.88 7.055 0 12.88 5.82 12.88 12.88"/><path d="m499.4 166v-3.805c0-3.137-2.574-5.707-5.82-5.707-3.137 0-5.715 2.57-5.715 5.707v29.78c0 3.137 2.578 5.711 5.715 5.711 3.246 0 5.82-2.574 5.82-5.711v-4.141c0-1.008 0.7852-1.793 1.793-1.793h3.578c0.8984 0 1.793 0.7852 1.793 1.793v4.141c0 5.824-4.027 10.86-9.406 12.43v5.598c0 1.008-0.7812 1.789-1.789 1.789h-3.582c-1.004 0-1.793-0.7812-1.793-1.789v-5.598c-5.371-1.566-9.293-6.605-9.293-12.43v-29.78c0-7.168 5.824-12.88 12.88-12.88 7.164 0 12.98 5.707 12.98 12.88v3.805c0 1.012-0.8945 1.793-1.793 1.793h-3.578c-1.008 0-1.793-0.7812-1.793-1.793"/><path d="m560.7 162.3c0-3.137-2.582-5.711-5.715-5.711-3.246 0-5.816 2.574-5.816 5.711v29.56c0 3.246 2.57 5.82 5.816 5.82 3.133 0 5.715-2.574 5.715-5.82zm7.16 0v29.56c0 7.168-5.82 12.98-12.88 12.98-7.164 0-12.98-5.816-12.98-12.98v-29.56c0-7.055 5.82-12.88 12.98-12.88 7.055 0 12.88 5.824 12.88 12.88"/><path d="m526.4 144.1v-4.797c0-0.582 0.7852-1.168 1.793-1.168h3.469c1.012 0 1.793 0.5859 1.793 1.168v4.797c0 0.6562-0.7812 1.164-1.793 1.164h-3.469c-1.008 0-1.793-0.5078-1.793-1.164m-11.53 0v-4.797c0-0.582 0.7852-1.168 1.797-1.168h3.582c1 0 1.785 0.5859 1.785 1.168v4.797c0 0.6562-0.7852 1.164-1.785 1.164h-3.582c-1.012 0-1.797-0.5078-1.797-1.164m16.34 1.176h-13.17v-7.137h13.17zm-1.219 17.25c0-3.133-2.578-5.707-5.711-5.707-3.242 0-5.82 2.574-5.82 5.707v11.09h11.53zm7.164 0v40.65c0 1.008-0.7852 1.789-1.789 1.789h-3.582c-1.008 0-1.793-0.7812-1.793-1.789v-22.39h-11.53v22.39c0 1.008-0.7812 1.789-1.789 1.789h-3.59c-1.008 0-1.789-0.7812-1.789-1.789v-40.65c0-7.164 5.828-12.88 12.99-12.88 7.055 0 12.88 5.711 12.88 12.88"/></g></svg>
